#Comment line ignore any data following # character 
#Hierarchical Translation and Rotation (.htr) file 
[Header]	
#Header keywords are followed by a single value 
FileType HTR		#Single word string
DataType HTRS		#Translation followed by rotation and scale data
FileVersion 1		#integer
NumSegments 64		#integer
NumFrames 3		#integer
DataFrameRate 30		#integer, data frame rate in this file
EulerRotationOrder ZYX
CalibrationUnits mm
RotationUnits Degrees
GlobalAxisofGravity Y
BoneLengthAxis Y
ScaleFactor 1.00
[SegmentNames&Hierarchy]
#CHILD	PARENT
Pinger_Root GLOBAL
Pelvis Pinger_Root
L_Hip Pelvis
R_Hip Pelvis
Rear_Leg01 Pelvis
Spine1 Pelvis
L_Leg01 L_Hip
L_Leg02 L_Leg01
L_Leg03 L_Leg02
L_Foot L_Leg03
L_Toe1_01 L_Foot
L_Toe2_01 L_Foot
L_Toe3_01 L_Foot
planeAlignerLeft L_Foot
L_Toe1_02 L_Toe1_01
L_Toe1_03 L_Toe1_02
L_Toe2_02 L_Toe2_01
L_Toe2_03 L_Toe2_02
L_Toe3_02 L_Toe3_01
L_Toe3_03 L_Toe3_02
planeLockWeightLeft planeAlignerLeft
R_Leg01 R_Hip
R_Leg02 R_Leg01
R_Leg03 R_Leg02
R_Foot R_Leg03
planeAlignerRight R_Foot
R_Toe1_01 R_Foot
R_Toe2_01 R_Foot
R_Toe3_01 R_Foot
planeLockWeightRight planeAlignerRight
R_Toe1_02 R_Toe1_01
R_Toe1_03 R_Toe1_02
R_Toe2_02 R_Toe2_01
R_Toe2_03 R_Toe2_02
R_Toe3_02 R_Toe3_01
R_Toe3_03 R_Toe3_02
Rear_Leg02 Rear_Leg01
Rear_Leg03 Rear_Leg02
Rear_Leg04 Rear_Leg03
Rear_Foot Rear_Leg04
planeAlignerCenter Rear_Foot
Rear_Toe1_01 Rear_Foot
Rear_Toe2_01 Rear_Foot
Rear_Toe3_01 Rear_Foot
planeLockWeightCenter planeAlignerCenter
Rear_Toe1_02 Rear_Toe1_01
Rear_Toe1_03 Rear_Toe1_02
Rear_Toe2_02 Rear_Toe2_01
Rear_Toe2_03 Rear_Toe2_02
Rear_Toe3_02 Rear_Toe3_01
Rear_Toe3_03 Rear_Toe3_02
Back_Bone Spine1
Head Spine1
Motor_Bone Back_Bone
Ping_Mechanism Back_Bone
BN_LookIK Head
bottomMouth Head
L_Mouth01 Head
L_mouthFront Head
mouthGun Head
R_Mouth01 Head
R_mouthFront Head
TopMouth Head
weapon_bone Head
[BasePosition]
#SegmentName Tx, Ty, Tz, Rx, Ry, Rz, BoneLength
Pinger_Root 0.000000 0.000000 0.000000 -90.000000 0.000000 0.000000 10.000000 
Pelvis 0.000000 0.000000 0.000000 0.000000 0.000000 0.000000 10.000000 
L_Hip 0.000000 0.000000 0.000000 0.000000 0.000000 0.000000 10.000000 
R_Hip 0.000000 0.000000 0.000000 0.000000 0.000000 0.000000 10.000000 
Rear_Leg01 0.000000 0.000000 0.000000 0.000000 0.000000 0.000000 10.000000 
Spine1 0.000000 0.000000 0.000000 0.000000 0.000000 0.000000 10.000000 
L_Leg01 0.000000 0.000000 0.000000 0.000000 0.000000 0.000000 10.000000 
L_Leg02 0.000000 0.000000 0.000000 0.000000 0.000000 0.000000 10.000000 
L_Leg03 0.000000 0.000000 0.000000 0.000000 0.000000 0.000000 10.000000 
L_Foot 0.000000 0.000000 0.000000 0.000000 0.000000 0.000000 10.000000 
L_Toe1_01 0.000000 0.000000 0.000000 0.000000 0.000000 0.000000 10.000000 
L_Toe2_01 0.000000 0.000000 0.000000 0.000000 0.000000 0.000000 10.000000 
L_Toe3_01 0.000000 0.000000 0.000000 0.000000 0.000000 0.000000 10.000000 
planeAlignerLeft 0.000000 0.000000 0.000000 0.000000 0.000000 0.000000 10.000000 
L_Toe1_02 0.000000 0.000000 0.000000 0.000000 0.000000 0.000000 10.000000 
L_Toe1_03 0.000000 0.000000 0.000000 0.000000 0.000000 0.000000 10.000000 
L_Toe2_02 0.000000 0.000000 0.000000 0.000000 0.000000 0.000000 10.000000 
L_Toe2_03 0.000000 0.000000 0.000000 0.000000 0.000000 0.000000 10.000000 
L_Toe3_02 0.000000 0.000000 0.000000 0.000000 0.000000 0.000000 10.000000 
L_Toe3_03 0.000000 0.000000 0.000000 0.000000 0.000000 0.000000 10.000000 
planeLockWeightLeft 0.000000 0.000000 0.000000 0.000000 0.000000 0.000000 10.000000 
R_Leg01 0.000000 0.000000 0.000000 0.000000 0.000000 0.000000 10.000000 
R_Leg02 0.000000 0.000000 0.000000 0.000000 0.000000 0.000000 10.000000 
R_Leg03 0.000000 0.000000 0.000000 0.000000 0.000000 0.000000 10.000000 
R_Foot 0.000000 0.000000 0.000000 0.000000 0.000000 0.000000 10.000000 
planeAlignerRight 0.000000 0.000000 0.000000 0.000000 0.000000 0.000000 10.000000 
R_Toe1_01 0.000000 0.000000 0.000000 0.000000 0.000000 0.000000 10.000000 
R_Toe2_01 0.000000 0.000000 0.000000 0.000000 0.000000 0.000000 10.000000 
R_Toe3_01 0.000000 0.000000 0.000000 0.000000 0.000000 0.000000 10.000000 
planeLockWeightRight 0.000000 0.000000 0.000000 0.000000 0.000000 0.000000 10.000000 
R_Toe1_02 0.000000 0.000000 0.000000 0.000000 0.000000 0.000000 10.000000 
R_Toe1_03 0.000000 0.000000 0.000000 0.000000 0.000000 0.000000 10.000000 
R_Toe2_02 0.000000 0.000000 0.000000 0.000000 0.000000 0.000000 10.000000 
R_Toe2_03 0.000000 0.000000 0.000000 0.000000 0.000000 0.000000 10.000000 
R_Toe3_02 0.000000 0.000000 0.000000 0.000000 0.000000 0.000000 10.000000 
R_Toe3_03 0.000000 0.000000 0.000000 0.000000 0.000000 0.000000 10.000000 
Rear_Leg02 0.000000 0.000000 0.000000 0.000000 0.000000 0.000000 10.000000 
Rear_Leg03 0.000000 0.000000 0.000000 0.000000 0.000000 0.000000 10.000000 
Rear_Leg04 0.000000 0.000000 0.000000 0.000000 0.000000 0.000000 10.000000 
Rear_Foot 0.000000 0.000000 0.000000 0.000000 0.000000 0.000000 10.000000 
planeAlignerCenter 0.000000 0.000000 0.000000 0.000000 0.000000 0.000000 10.000000 
Rear_Toe1_01 0.000000 0.000000 0.000000 0.000000 0.000000 0.000000 10.000000 
Rear_Toe2_01 0.000000 0.000000 0.000000 0.000000 0.000000 0.000000 10.000000 
Rear_Toe3_01 0.000000 0.000000 0.000000 0.000000 0.000000 0.000000 10.000000 
planeLockWeightCenter 0.000000 0.000000 0.000000 0.000000 0.000000 0.000000 10.000000 
Rear_Toe1_02 0.000000 0.000000 0.000000 0.000000 0.000000 0.000000 10.000000 
Rear_Toe1_03 0.000000 0.000000 0.000000 0.000000 0.000000 0.000000 10.000000 
Rear_Toe2_02 0.000000 0.000000 0.000000 0.000000 0.000000 0.000000 10.000000 
Rear_Toe2_03 0.000000 0.000000 0.000000 0.000000 0.000000 0.000000 10.000000 
Rear_Toe3_02 0.000000 0.000000 0.000000 0.000000 0.000000 0.000000 10.000000 
Rear_Toe3_03 0.000000 0.000000 0.000000 0.000000 0.000000 0.000000 10.000000 
Back_Bone 0.000000 0.000000 0.000000 0.000000 0.000000 0.000000 10.000000 
Head 0.000000 0.000000 0.000000 0.000000 0.000000 0.000000 10.000000 
Motor_Bone 0.000000 0.000000 0.000000 0.000000 0.000000 0.000000 10.000000 
Ping_Mechanism 0.000000 0.000000 0.000000 0.000000 0.000000 0.000000 10.000000 
BN_LookIK 0.000000 0.000000 0.000000 0.000000 0.000000 0.000000 10.000000 
bottomMouth 0.000000 0.000000 0.000000 0.000000 0.000000 0.000000 10.000000 
L_Mouth01 0.000000 0.000000 0.000000 0.000000 0.000000 0.000000 10.000000 
L_mouthFront 0.000000 0.000000 0.000000 0.000000 0.000000 0.000000 10.000000 
mouthGun 0.000000 0.000000 0.000000 0.000000 0.000000 0.000000 10.000000 
R_Mouth01 0.000000 0.000000 0.000000 0.000000 0.000000 0.000000 10.000000 
R_mouthFront 0.000000 0.000000 0.000000 0.000000 0.000000 0.000000 10.000000 
TopMouth 0.000000 0.000000 0.000000 0.000000 0.000000 0.000000 10.000000 
weapon_bone 0.000000 0.000000 0.000000 0.000000 0.000000 0.000000 10.000000 
#Beginning of Data. Separated by tabs
#Fr	Tx	Ty	Tz	Rx	Ry	Rz	SF
[Pinger_Root]
71 2500.000000 0.000220 0.000000 -0.000075 -0.000000 -0.000020 2500.000000
72 2500.000000 0.000220 0.000000 -0.000075 -0.000000 -0.000020 2500.000000
73 2500.000000 0.000220 0.000000 -0.000075 -0.000000 -0.000020 2500.000000
[Pelvis]
71 145.279190 475.530853 4390.604004 -78.178513 -78.089127 70.331779 4418.669434
72 133.039459 526.847412 4404.296387 -80.127106 -79.901688 72.174744 4437.689941
73 121.572220 582.975037 4414.788574 -82.654518 -81.295609 74.698936 4454.772949
[L_Hip]
71 5.766392 125.831482 872.656799 159.774231 -50.660999 119.947128 881.701050
72 5.766392 125.831482 872.656799 159.813553 -49.741684 120.368080 881.701050
73 5.766392 125.831482 872.656799 159.862381 -48.822739 120.782181 881.701050
[R_Hip]
71 5.765438 125.836372 -872.654907 37.644581 54.555107 124.806091 881.699829
72 5.765438 125.836372 -872.654907 37.743729 53.773724 124.967545 881.699829
73 5.765438 125.836372 -872.654907 37.837379 52.992168 125.123764 881.699829
[Rear_Leg01]
71 -192.298416 -925.602966 -0.001907 170.765320 5.287590 -162.651596 945.367432
72 -192.298416 -925.602966 -0.001907 170.437592 4.661754 -161.671890 945.367432
73 -192.298416 -925.602966 -0.001907 170.099487 4.041669 -160.689514 945.367432
[Spine1]
71 290.604584 5.007505 0.000477 6.127944 -3.241462 12.230363 290.647736
72 290.604584 5.007505 0.000477 6.485543 -2.700811 13.811568 290.647736
73 290.604584 5.007505 0.000477 6.725893 -2.185589 15.024007 290.647736
[L_Leg01]
71 761.932007 -0.002384 -0.069261 14.401553 -25.046356 -7.709869 761.932068
72 761.932007 -0.002384 -0.069261 16.020861 -23.328346 -7.946208 761.932068
73 761.932007 -0.002384 -0.069261 17.611908 -21.605661 -8.127268 761.932068
[L_Leg02]
71 1441.140503 -0.000954 -0.000715 0.732119 -0.103147 -116.492554 1441.140503
72 1441.140503 -0.000954 -0.000715 0.976091 -0.125236 -118.175919 1441.140503
73 1441.140503 -0.000954 -0.000715 1.236297 -0.154388 -119.965981 1441.140503
[L_Leg03]
71 1686.963989 -0.000715 -0.000954 -0.009848 0.005583 113.108856 1686.963989
72 1686.963989 -0.000715 -0.000954 -0.012385 0.006175 113.728386 1686.963989
73 1686.963989 -0.000715 -0.000954 -0.014916 0.006796 114.348000 1686.963989
[L_Foot]
71 3041.570068 -30.715107 11.297464 1.312233 11.840781 45.721130 3041.746094
72 3041.570068 -30.715107 11.297464 1.406184 12.037857 47.014065 3041.746094
73 3041.570068 -30.715107 11.297464 1.504760 12.232864 48.308628 3041.746094
[L_Toe1_01]
71 -188.216690 -224.732346 -21.137953 93.168114 -6.282801 -172.167694 293.899567
72 -188.216690 -224.732346 -21.137953 93.260941 -6.373155 -172.180862 293.899567
73 -188.216690 -224.732346 -21.137953 93.353798 -6.463485 -172.194183 293.899567
[L_Toe2_01]
71 200.746536 -219.926590 148.838394 -88.970123 -24.728657 -49.341774 332.896027
72 200.746536 -219.926590 148.838394 -89.193802 -25.029528 -49.887211 332.896027
73 200.746536 -219.926590 148.838394 -89.414818 -25.332266 -50.432632 332.896027
[L_Toe3_01]
71 188.832520 -219.859131 -191.078659 -100.825821 16.273598 -62.526176 347.140900
72 188.832520 -219.859131 -191.078659 -100.665939 15.872893 -63.346481 347.140900
73 188.832520 -219.859131 -191.078659 -100.500427 15.474441 -64.166351 347.140900
[planeAlignerLeft]
71 46.972111 -564.540710 83.001793 169.280319 -78.328247 91.547165 572.539795
72 45.053413 -568.501587 85.605339 169.290421 -78.006897 91.291504 576.673340
73 43.134716 -572.462524 88.208839 169.293518 -77.685440 91.042625 580.822449
[L_Toe1_02]
71 413.761139 0.000477 0.000000 0.001384 -25.953226 0.001384 413.761139
72 413.761139 0.000477 0.000000 0.001384 -25.959196 0.001384 413.761139
73 413.761139 0.000477 0.000000 0.001384 -25.965166 0.001384 413.761139
[L_Toe1_03]
71 464.317322 0.000358 -0.000089 0.004001 55.882229 0.004001 464.317322
72 464.317322 0.000358 -0.000089 0.003968 55.586926 0.003968 464.317322
73 464.317322 0.000358 -0.000089 0.003935 55.291607 0.003935 464.317322
[L_Toe2_02]
71 342.235809 -0.000477 0.000238 0.001186 -73.573570 0.001186 342.235809
72 342.235809 -0.000477 0.000238 0.001186 -73.421967 0.001186 342.235809
73 342.235809 -0.000477 0.000238 0.001186 -73.270340 0.001186 342.235809
[L_Toe2_03]
71 420.210846 -0.000715 0.000000 -0.040869 88.316116 -0.037371 420.210846
72 420.210846 -0.000715 0.000000 -0.032233 87.838882 -0.028735 420.210846
73 420.210846 -0.000715 0.000000 -0.026720 87.361961 -0.023222 420.210846
[L_Toe3_02]
71 329.270111 0.000954 0.000000 0.001177 -81.580162 0.001177 329.270111
72 329.270111 0.000954 0.000000 0.001177 -81.459442 0.001177 329.270111
73 329.270111 0.000954 0.000000 0.001177 -81.338623 0.001177 329.270111
[L_Toe3_03]
71 439.137451 -0.001907 0.000954 -179.997620 74.081848 -179.994080 439.137451
72 439.137451 -0.001907 0.000954 -179.997437 74.752640 -179.993896 439.137451
73 439.137451 -0.001907 0.000954 -179.997238 75.423309 -179.993713 439.137451
[planeLockWeightLeft]
71 1000.000122 0.000000 -0.000306 -0.011826 -0.004376 0.005620 1000.000122
72 1000.000244 0.000000 -0.000311 -0.011826 -0.004376 0.005620 1000.000244
73 1000.000244 0.000000 -0.000316 -0.011826 -0.004376 0.005620 1000.000244
[R_Leg01]
71 761.455627 -0.001907 -0.000358 128.144974 -19.899916 30.532722 761.455688
72 761.455627 -0.001907 -0.000358 126.538193 -17.603508 32.059582 761.455688
73 761.455627 -0.001907 -0.000358 125.264359 -15.705606 33.162678 761.455688
[R_Leg02]
71 1441.140625 0.000000 -0.000238 -1.447831 -0.256597 -115.369057 1441.140625
72 1441.140625 0.000000 -0.000238 -1.396831 -0.235297 -115.017998 1441.140625
73 1441.140625 0.000000 -0.000238 -1.345702 -0.214311 -114.666954 1441.140625
[R_Leg03]
71 1686.963989 0.000954 0.001431 0.085990 -0.045617 133.517822 1686.963989
72 1686.963989 0.000954 0.001431 0.082986 -0.043859 132.879959 1686.963989
73 1686.963989 0.000954 0.001431 0.079963 -0.042135 132.242142 1686.963989
[R_Foot]
71 3041.560059 -30.531288 -11.204481 -4.765880 -18.544024 46.839893 3041.734131
72 3041.560059 -30.531288 -11.204481 -4.151859 -19.428356 47.588348 3041.734131
73 3041.560059 -30.531288 -11.204481 -3.561169 -20.236820 48.701767 3041.734131
[planeAlignerRight]
71 -127.135155 -574.031921 -312.918335 -36.583759 -71.418259 -64.296967 666.028442
72 -127.136604 -574.030640 -312.916748 -36.583092 -71.410309 -64.301643 666.026855
73 -127.138046 -574.029297 -312.915161 -36.582417 -71.402405 -64.306396 666.025208
[R_Toe1_01]
71 -188.383347 -224.864899 21.052242 76.087608 -0.481798 -172.712906 294.101532
72 -188.383347 -224.864899 21.052242 76.155205 -0.475086 -172.714523 294.101532
73 -188.383347 -224.864899 21.052242 76.222786 -0.468373 -172.716125 294.101532
[R_Toe2_01]
71 200.637817 -220.002121 -148.787384 -93.227234 32.390125 -59.160286 332.857574
72 200.637817 -220.002121 -148.787384 -92.984459 32.469147 -59.165039 332.857574
73 200.637817 -220.002121 -148.787384 -92.741470 32.548161 -59.169376 332.857574
[R_Toe3_01]
71 188.606735 -220.092957 191.126343 -72.039444 -8.064807 -73.634850 347.192566
72 188.606735 -220.092957 191.126343 -72.204895 -8.118897 -73.652542 347.192566
73 188.606735 -220.092957 191.126343 -72.370346 -8.173030 -73.670067 347.192566
[planeLockWeightRight]
71 999.999756 0.000000 -0.000144 -0.011823 -0.004379 -0.000027 999.999756
72 999.999756 0.000000 -0.000139 -0.011823 -0.004379 -0.000027 999.999756
73 999.999756 0.000000 -0.000134 -0.011823 -0.004379 -0.000027 999.999756
[R_Toe1_02]
71 413.762085 0.000477 -0.000119 0.001394 -24.665104 0.001394 413.762085
72 413.762085 0.000477 -0.000119 0.001394 -24.664541 0.001394 413.762085
73 413.762085 0.000477 -0.000119 0.001394 -24.663980 0.001394 413.762085
[R_Toe1_03]
71 464.317810 0.000000 0.001088 0.006616 69.563271 0.006616 464.317810
72 464.317810 0.000000 0.001088 0.006617 69.566254 0.006617 464.317810
73 464.317810 0.000000 0.001088 0.006618 69.569290 0.006618 464.317810
[R_Toe2_02]
71 342.234741 -0.000954 0.000238 0.001197 -67.217545 0.001197 342.234741
72 342.234741 -0.000954 0.000238 0.001197 -67.217918 0.001197 342.234741
73 342.234741 -0.000954 0.000238 0.001197 -67.218300 0.001197 342.234741
[R_Toe2_03]
71 420.210846 0.000715 -0.000268 0.008231 73.605896 0.008231 420.210846
72 420.210846 0.000715 -0.000268 0.008232 73.606514 0.008232 420.210846
73 420.210846 0.000715 -0.000268 0.008232 73.607140 0.008232 420.210846
[R_Toe3_02]
71 329.270355 -0.000477 -0.000954 0.001184 -74.470352 0.001184 329.270355
72 329.270355 -0.000477 -0.000954 0.001184 -74.475197 0.001184 329.270355
73 329.270355 -0.000477 -0.000954 0.001184 -74.480011 0.001184 329.270355
[R_Toe3_03]
71 439.137939 0.000238 0.001431 -0.011423 83.186401 -0.007920 439.137939
72 439.137939 0.000238 0.001431 -0.011439 83.197838 -0.007936 439.137939
73 439.137939 0.000238 0.001431 -0.011455 83.209160 -0.007953 439.137939
[Rear_Leg02]
71 1162.777710 -0.029802 0.005960 -1.441104 5.848989 -115.796585 1162.777710
72 1162.777710 -0.029802 0.005960 -1.134597 4.760556 -116.632805 1162.777710
73 1162.777710 -0.029802 0.005960 -0.812583 3.676523 -117.473778 1162.777710
[Rear_Leg03]
71 607.192505 -0.013351 -0.073195 0.010595 -0.004889 65.900070 607.192505
72 607.192505 -0.013351 -0.073195 0.009774 -0.004330 65.652222 607.192505
73 607.192505 -0.013351 -0.073195 0.008951 -0.003775 65.404366 607.192505
[Rear_Leg04]
71 995.874512 -0.020504 -0.011921 -0.042932 -0.017463 61.341103 995.874573
72 995.874512 -0.020504 -0.011921 -0.042352 -0.016807 60.815350 995.874573
73 995.874512 -0.020504 -0.011921 -0.041778 -0.016146 60.289597 995.874573
[Rear_Foot]
71 3096.176270 -0.067472 -0.041425 83.503838 84.900726 -89.642395 3096.176270
72 3096.176270 -0.067472 -0.041425 86.408089 85.855515 -85.838799 3096.176270
73 3096.176270 -0.067472 -0.041425 91.285713 86.787704 -80.062210 3096.176270
[planeAlignerCenter]
71 -7.418612 -134.629730 -625.026611 10.585888 -0.001500 179.998184 639.404724
72 -7.451399 -140.851501 -638.314514 10.816942 -0.001496 179.998184 653.712524
73 -7.160446 -140.641800 -652.143860 11.047997 -0.001492 179.998184 667.175354
[Rear_Toe1_01]
71 0.653352 83.966492 -371.173737 0.529696 26.130566 90.901787 380.553192
72 0.653352 83.966492 -371.173737 0.553188 27.493233 90.915115 380.553192
73 0.653352 83.966492 -371.173737 0.577327 28.854733 90.929237 380.553192
[Rear_Toe2_01]
71 178.200760 -294.826019 -362.060547 -7.079000 25.291590 -69.015831 499.765686
72 178.200760 -294.826019 -362.060547 -7.269424 25.360722 -69.168526 499.765686
73 178.200760 -294.826019 -362.060547 -7.422671 25.763655 -69.193787 499.765686
[Rear_Toe3_01]
71 -153.359680 -308.780914 -362.060852 3.304105 23.055933 -110.759026 499.952881
72 -153.359680 -308.780914 -362.060852 3.403192 22.972427 -110.612473 499.952881
73 -153.359680 -308.780914 -362.060852 3.472830 23.383080 -110.593765 499.952881
[planeLockWeightCenter]
71 1000.000122 0.000432 -0.000081 -0.011814 -0.004373 -0.000015 1000.000122
72 1000.000122 0.000420 -0.000079 -0.011814 -0.004373 -0.000015 1000.000122
73 1000.000122 0.000407 -0.000076 -0.011814 -0.004373 -0.000015 1000.000122
[Rear_Toe1_02]
71 379.707825 0.194073 0.000477 -0.002649 -32.560966 -0.002649 379.707855
72 379.707825 0.194073 0.000477 -0.002648 -32.636185 -0.002648 379.707855
73 379.707825 0.194073 0.000477 -0.002647 -32.711399 -0.002647 379.707855
[Rear_Toe1_03]
71 500.129700 0.165701 0.000119 -179.972992 87.392624 -179.976486 500.129761
72 500.129700 0.165701 0.000119 -179.966721 87.910995 -179.970215 500.129761
73 500.129700 0.165701 0.000119 0.000000 89.445740 -0.003491 500.129761
[Rear_Toe2_02]
71 340.494507 0.000238 -0.000954 0.001231 -54.977459 0.001231 340.494507
72 340.494507 0.000238 -0.000954 0.001235 -53.837486 0.001235 340.494507
73 340.494507 0.000238 -0.000954 0.001235 -53.781979 0.001235 340.494507
[Rear_Toe2_03]
71 433.103577 0.000000 0.000238 0.003438 50.079266 0.003438 433.103546
72 433.103577 0.000000 0.000238 0.003325 48.668148 0.003325 433.103546
73 433.103577 0.000000 0.000238 0.003321 48.608387 0.003321 433.103546
[Rear_Toe3_02]
71 340.494141 -0.000358 -0.000477 -0.002486 -48.252327 -0.002486 340.494171
72 340.494141 -0.000358 -0.000477 -0.002498 -46.911877 -0.002498 340.494171
73 340.494141 -0.000358 -0.000477 -0.002497 -46.949558 -0.002497 340.494171
[Rear_Toe3_03]
71 433.103577 0.001431 -0.000238 0.000481 42.547348 -0.003338 433.103546
72 433.103577 0.001431 -0.000238 0.000535 41.000217 -0.003307 433.103546
73 433.103577 0.001431 -0.000238 0.000534 41.037113 -0.003308 433.103546
[Back_Bone]
71 1312.175781 -701.934692 0.000954 1.645082 -0.846798 -86.774300 1488.125488
72 1312.175781 -701.934692 0.000954 1.622662 -0.740643 -86.623322 1488.125488
73 1312.175781 -701.934692 0.000954 1.600522 -0.634428 -86.472382 1488.125488
[Head]
71 1406.159424 809.709290 0.001431 0.335996 -2.827214 7.515002 1622.625488
72 1406.159424 809.709290 0.001431 0.279229 -2.602738 7.558426 1622.625488
73 1406.159424 809.709290 0.001431 0.222643 -2.378222 7.601619 1622.625488
[Motor_Bone]
71 1158.364380 -417.834747 0.000477 -5.513447 1.191204 -104.796608 1231.419434
72 1158.364380 -417.834747 0.000477 -3.495623 0.584029 -105.401451 1231.419434
73 1158.364380 -417.834747 0.000477 0.251712 -0.541767 -106.527855 1231.419434
[Ping_Mechanism]
71 1269.108276 -452.299866 19.084362 0.000103 -0.000053 82.120995 1347.432861
72 1260.959106 -450.794739 15.326815 0.000103 -0.000053 82.120995 1339.204468
73 1255.431519 -449.131531 11.957965 0.000103 -0.000053 82.120995 1333.405640
[BN_LookIK]
71 193.241119 1380.371704 -0.002861 0.000000 89.965736 -31.038179 1393.832153
72 193.241119 1380.371704 -0.002861 0.000000 89.965736 -31.038179 1393.832153
73 193.241119 1380.371704 -0.002861 0.000000 89.965736 -31.038179 1393.832153
[bottomMouth]
71 -435.092926 615.759399 -0.000954 -0.000022 0.000016 73.527184 753.966492
72 -435.092926 615.759399 -0.000954 -0.000022 0.000016 73.527184 753.966492
73 -435.092926 615.759399 -0.000954 -0.000022 0.000016 73.527184 753.966492
[L_Mouth01]
71 554.440979 7.658243 838.222046 150.204178 23.759130 109.605339 1005.027161
72 554.440979 7.658243 838.222046 150.204178 23.759130 109.605339 1005.027161
73 554.440979 7.658243 838.222046 150.204178 23.759130 109.605339 1005.027161
[L_mouthFront]
71 551.629089 934.514771 339.150421 0.000081 2.804060 79.119301 1136.941284
72 551.629089 934.514771 339.150421 0.000081 2.804060 79.119301 1136.941284
73 551.629089 934.514771 339.150421 0.000081 2.804060 79.119301 1136.941284
[mouthGun]
71 55.332661 1627.420898 0.000000 0.000023 0.000009 -11.038128 1628.361328
72 55.332661 1627.420898 0.000000 0.000023 0.000009 -11.038128 1628.361328
73 55.332661 1627.420898 0.000000 0.000023 0.000009 -11.038128 1628.361328
[R_Mouth01]
71 554.442383 7.659197 -838.223938 29.795891 -23.759109 109.605331 1005.029541
72 554.442383 7.659197 -838.223938 29.795891 -23.759109 109.605331 1005.029541
73 554.442383 7.659197 -838.223938 29.795891 -23.759109 109.605331 1005.029541
[R_mouthFront]
71 551.629089 934.514282 -339.151367 0.000029 -2.803930 79.119133 1136.941162
72 551.629089 934.514282 -339.151367 0.000029 -2.803930 79.119133 1136.941162
73 551.629089 934.514282 -339.151367 0.000029 -2.803930 79.119133 1136.941162
[TopMouth]
71 461.269867 -56.106091 -0.008583 -0.000059 -0.000268 92.025169 464.669525
72 461.269867 -56.106091 -0.008583 -0.000059 -0.000268 92.025169 464.669525
73 461.269867 -56.106091 -0.008583 -0.000059 -0.000268 92.025169 464.669525
[weapon_bone]
71 -987.239868 1448.372803 0.001431 0.000000 89.965736 -31.038221 1752.833740
72 -987.239868 1448.372803 0.001431 0.000000 89.965736 -31.038221 1752.833740
73 -987.239868 1448.372803 0.001431 0.000000 89.965736 -31.038221 1752.833740
